<svg xmlns="http://www.w3.org/2000/svg" xmlns:xlink="http://www.w3.org/1999/xlink" version="1.1" id="Layer_1" x="0px" y="0px" style="enable-background:new 0 0 792 612;" xml:space="preserve" viewBox="221.92 249.48 227.29 148.75">
<style type="text/css">
	.st0{fill:#0073BC;}
	.st1{fill:#009DD9;}
	.st2{fill:#97002E;}
	.st3{fill:#E21836;}
</style>
<g>
	<g>
		<g>
			<g>
				<g>
					<path class="st0" d="M388.55,291.52c-0.53,0.27-1.62,0.59-3.22,0.59c-4.45,0-7.01-3.06-7.01-6.97c0-4.65,3.26-7.11,7.3-7.11       c1.57,0,2.4,0.3,2.93,0.58l-0.49,2.78c-0.6-0.26-1.23-0.5-2.31-0.5c-1.93,0-3.97,1.15-3.97,4.2c0,2.73,1.63,4.17,3.99,4.17       c0.93,0,1.57-0.18,2.3-0.51L388.55,291.52z"/>
					<path class="st0" d="M403.69,287.72c0.11,1.28,1.17,1.95,2.8,1.96c0.98,0.01,2.13-0.27,2.89-0.73l0.45,2.35       c-1.14,0.57-2.46,0.8-3.79,0.8c-3.59,0-5.51-2.16-5.51-5.47c0-3.2,2.07-5.26,5.17-5.26c3.19,0,4.63,2.35,4.63,5.3       c0,0.31-0.04,0.82-0.07,1.05H403.69 M407.31,285.58c0-0.74-0.36-2.03-1.76-2.03c-1.22,0-1.8,1.06-1.89,2.03H407.31z"/>
					<polygon class="st0" points="413.87,291.69 410.54,281.8 413.87,281.8 415.68,288.79 415.74,288.79 417.55,281.8 420.87,281.8        417.54,291.69      "/>
					<path class="st0" d="M421.73,285.05c0-1.46-0.05-2.4-0.11-3.25h2.84l0.09,1.84h0.07c0.5-1.45,1.45-2.01,2.43-2.06       c0.47-0.03,0.72,0.01,1.01,0.06v2.89c-0.28-0.05-0.83-0.12-1.21-0.08c-1.16,0.11-1.86,0.95-2.06,1.92       c-0.04,0.2-0.06,0.43-0.06,0.69v4.64h-3V285.05z"/>
					<path class="st0" d="M438.66,286.74c0,3.24-1.95,5.37-5.12,5.37c-3.17,0-5.12-2.13-5.12-5.37c0-3.24,1.95-5.37,5.12-5.37       C436.71,281.38,438.66,283.5,438.66,286.74 M435.54,286.74c0-1.61-0.55-3.01-1.99-3.01c-1.44,0-1.99,1.4-1.99,3.01       c0,1.61,0.55,3.01,1.99,3.01C434.98,289.75,435.54,288.35,435.54,286.74z"/>
					<path class="st0" d="M440.01,284.95c0-1.23-0.05-2.29-0.11-3.15h2.84l0.06,1.38h0.06c0.39-0.64,1.44-1.7,3.06-1.7       c1.99,0,3.29,1.36,3.29,4.27v5.94h-3.01v-5.49c0-1.27-0.44-2.14-1.53-2.14c-0.84,0-1.36,0.59-1.55,1.15       c-0.07,0.2-0.1,0.49-0.1,0.77v5.71h-3.01V284.95z"/>
					<path class="st0" d="M395.94,281.48c-1.2,0-2.36,0.54-2.95,1.42h-0.04v-4.82l-3.01,1.04v12.56h3.01v-5.87       c0-0.85,0.55-1.76,1.61-1.76c1.13,0,1.57,0.89,1.57,2.18v5.45h3.02v-5.86C399.14,282.83,397.86,281.48,395.94,281.48z"/>
				</g>
				<g>
					<polygon class="st0" points="378.43,294.32 378.43,317.91 413.82,306.11      "/>
					<polygon class="st1" points="378.43,317.91 413.82,329.71 449.21,317.91 449.21,294.32 413.82,306.11      "/>
				</g>
				<g>
					<polygon class="st2" points="378.43,321.74 378.43,345.33 413.82,333.53      "/>
					<polygon class="st3" points="378.43,345.33 413.82,357.13 449.21,345.33 449.21,321.74 413.82,333.53      "/>
				</g>
			</g>
		</g>
		<g>
			<g>
				<g>
					<path class="st1" d="M221.92,342.83v-0.09c0-6.89,4.93-12.34,11.9-12.34c8.11,0,11.86,5.97,11.86,12.9c0,0.52,0,1.13-0.04,1.7       h-15.78c0.65,2.57,2.53,3.88,5.1,3.88c2,0,3.53-0.74,5.23-2.4l4.58,3.79c-2.27,2.88-5.54,4.8-10.2,4.8       C227.15,355.08,221.92,350.11,221.92,342.83z M237.97,340.79c-0.31-2.62-1.87-4.27-4.14-4.27c-2.18,0-3.66,1.66-4.1,4.27       H237.97z"/>
					<path class="st1" d="M248.17,330.93h8.28v3.31c1.53-1.96,3.71-3.84,7.06-3.84c5.01,0,8.02,3.31,8.02,8.68v15.43h-8.24v-12.77       c0-2.62-1.35-4.01-3.36-4.01c-2.01,0-3.49,1.4-3.49,4.01v12.77h-8.28V330.93z"/>
					<path class="st1" d="M273.8,342.83v-0.09c0-6.89,4.93-12.34,11.9-12.34c8.11,0,11.86,5.97,11.86,12.9c0,0.52,0,1.13-0.04,1.7       h-15.78c0.65,2.57,2.53,3.88,5.1,3.88c2,0,3.53-0.74,5.23-2.4l4.58,3.79c-2.27,2.88-5.54,4.8-10.2,4.8       C279.03,355.08,273.8,350.11,273.8,342.83z M289.84,340.79c-0.31-2.62-1.87-4.27-4.14-4.27c-2.18,0-3.66,1.66-4.1,4.27H289.84z       "/>
					<path class="st1" d="M300.05,330.93h8.28v4.75c1.35-3.23,3.53-5.32,7.45-5.14v8.72h-0.7c-4.32,0-6.76,2.48-6.76,7.89v7.37       h-8.28V330.93z"/>
					<path class="st1" d="M317.01,358.88l2.66-5.49c2.53,1.4,5.06,2.22,8.24,2.22c4.1,0,6.15-2.05,6.15-5.8v-0.92       c-1.66,1.92-3.84,3.53-7.24,3.53c-5.8,0-10.51-4.18-10.51-10.94v-0.09c0-6.8,4.79-10.99,10.2-10.99c3.57,0,5.67,1.44,7.41,3.31       v-2.79h8.28v17.92c0,4.32-0.96,7.37-3.05,9.42c-2.14,2.18-5.45,3.31-10.38,3.31C324.24,361.58,320.41,360.62,317.01,358.88z        M334.09,341.48v-0.09c0-2.62-2.05-4.58-4.84-4.58c-2.83,0-4.84,1.96-4.84,4.62v0.09c0,2.62,2.01,4.53,4.84,4.53       C332.09,346.06,334.09,344.1,334.09,341.48z"/>
					<path class="st1" d="M361.65,330.93h8.5l-8.63,23.02c-2.05,5.54-4.27,7.67-8.98,7.67c-2.92,0-5.36-0.78-7.54-2.05l2.53-5.8       c1.35,0.78,2.7,1.26,3.62,1.26c0.83,0,1.39-0.22,1.96-0.96l-9.24-23.15h8.63l4.71,14.21L361.65,330.93z"/>
				</g>
				<g>
					<path class="st1" d="M301.04,273.98v-9.63h-2.79v-6.63h2.79v-5.97h8.24v5.97h5.49v6.63h-5.49v8.02c0,1.66,0.74,2.35,2.27,2.35       c1.09,0,2.14-0.31,3.14-0.78v6.45c-1.48,0.83-3.44,1.4-5.75,1.4C303.96,281.78,301.04,279.61,301.04,273.98z"/>
					<path class="st1" d="M317.26,249.48h8.28v11.47c1.53-1.96,3.71-3.75,7.06-3.75c5.01,0,8.02,3.31,8.02,8.68v15.43h-8.24v-12.77       c0-2.62-1.35-4.01-3.36-4.01c-2.01,0-3.49,1.39-3.49,4.01v12.77h-8.28V249.48z"/>
					<path class="st1" d="M342.89,269.62v-0.09c0-6.89,4.93-12.34,11.9-12.34c8.11,0,11.86,5.97,11.86,12.9c0,0.52,0,1.13-0.04,1.7       h-15.78c0.65,2.57,2.53,3.88,5.1,3.88c2,0,3.53-0.74,5.23-2.4l4.58,3.79c-2.27,2.88-5.54,4.8-10.2,4.8       C348.12,281.87,342.89,276.9,342.89,269.62z M358.93,267.57c-0.31-2.62-1.87-4.27-4.14-4.27c-2.18,0-3.66,1.66-4.1,4.27H358.93       z"/>
				</g>
				<g>
					<g>
						<g>
							<path class="st1" d="M243.68,379.44v-0.09c0-6.67,5.14-12.29,12.6-12.29c4.84,0,8.06,2.09,10.07,5.23l-5.58,4.18         c-1.18-1.53-2.44-2.48-4.4-2.48c-2.7,0-4.66,2.4-4.66,5.27v0.09c0,3.05,1.92,5.36,4.71,5.36c2.01,0,3.27-0.92,4.53-2.44         l5.54,4.01c-2.18,3.23-5.32,5.41-10.46,5.41C248.87,391.69,243.68,386.11,243.68,379.44z"/>
							<path class="st1" d="M266.74,379.44v-0.09c0-6.71,5.49-12.34,13.03-12.34c7.54,0,12.99,5.54,12.99,12.25v0.09         c0,6.71-5.49,12.34-13.08,12.34C272.19,391.69,266.74,386.15,266.74,379.44z M284.74,379.44v-0.09         c0-2.92-2.14-5.36-5.06-5.36c-3.01,0-4.93,2.4-4.93,5.27v0.09c0,2.88,2.09,5.32,5.01,5.32         C282.78,384.67,284.74,382.27,284.74,379.44z"/>
							<path class="st1" d="M295.17,367.54h8.28v3.23c1.53-1.96,3.71-3.75,7.02-3.75c3.14,0,5.54,1.39,6.8,3.84         c2.05-2.35,4.45-3.84,7.89-3.84c5.01,0,8.07,3.14,8.07,8.63v15.48h-8.28V378.3c0-2.57-1.26-3.97-3.23-3.97         c-1.96,0-3.4,1.4-3.4,3.97v12.82h-8.24V378.3c0-2.57-1.31-3.97-3.27-3.97c-1.96,0-3.36,1.4-3.36,3.97v12.82h-8.28V367.54z"/>
							<path class="st1" d="M336.41,367.54h8.28v3.14c1.61-1.96,3.62-3.66,7.15-3.66c5.62,0,10.46,4.66,10.46,12.21v0.09         c0,7.67-4.84,12.34-10.42,12.34c-3.58,0-5.67-1.61-7.19-3.4v9.85h-8.28V367.54z M354.19,379.35v-0.09         c0-3.14-2.18-5.36-4.84-5.36c-2.7,0-4.84,2.22-4.84,5.36v0.09c0,3.14,2.14,5.36,4.84,5.36         C352.01,384.71,354.19,382.53,354.19,379.35z"/>
							<path class="st1" d="M363.66,384.36v-0.09c0-4.93,3.71-7.41,9.24-7.41c2.18,0,4.32,0.39,5.67,0.92v-0.39         c0-2.48-1.53-3.88-4.71-3.88c-2.48,0-4.4,0.52-6.54,1.31l-1.7-5.8c2.66-1.09,5.49-1.83,9.55-1.83c4.23,0,7.11,1,8.98,2.88         c1.79,1.74,2.53,4.18,2.53,7.5v13.56h-8.15v-2.48c-1.66,1.79-3.88,3.01-6.98,3.01C367.06,391.64,363.66,389.03,363.66,384.36         z M378.65,382.58v-1.09c-0.87-0.35-2.05-0.61-3.27-0.61c-2.4,0-3.79,1.13-3.79,2.92v0.09c0,1.61,1.22,2.57,2.92,2.57         C376.95,386.46,378.65,384.93,378.65,382.58z"/>
							<path class="st1" d="M389.81,367.54h8.28v3.31c1.53-1.96,3.71-3.84,7.06-3.84c5.01,0,8.02,3.31,8.02,8.68v15.43h-8.24v-12.77         c0-2.62-1.35-4.01-3.36-4.01c-2.01,0-3.49,1.4-3.49,4.01v12.77h-8.28V367.54z"/>
							<path class="st1" d="M431.8,367.54h8.5l-8.63,23.02c-2.05,5.54-4.27,7.67-8.98,7.67c-2.92,0-5.36-0.78-7.54-2.05l2.53-5.8         c1.35,0.78,2.7,1.26,3.62,1.26c0.83,0,1.39-0.22,1.96-0.96l-9.24-23.15h8.63l4.71,14.21L431.8,367.54z"/>
						</g>
					</g>
				</g>
				<g>
					<path class="st1" d="M223.91,286.09h8.28v11.47c1.53-1.96,3.71-3.75,7.06-3.75c5.01,0,8.02,3.31,8.02,8.68v15.43h-8.24v-12.77       c0-2.62-1.35-4.01-3.36-4.01s-3.49,1.4-3.49,4.01v12.77h-8.28V286.09z"/>
					<path class="st1" d="M250.28,309.72v-15.39h8.28v12.77c0,2.57,1.35,3.97,3.36,3.97c2.01,0,3.49-1.4,3.49-3.97v-12.77h8.24       v23.58h-8.24v-3.27c-1.53,1.96-3.71,3.79-7.06,3.79C253.33,318.43,250.28,315.08,250.28,309.72z"/>
					<path class="st1" d="M277,294.33h8.28v3.23c1.53-1.96,3.71-3.75,7.02-3.75c3.14,0,5.54,1.4,6.8,3.84       c2.05-2.35,4.45-3.84,7.89-3.84c5.01,0,8.07,3.14,8.07,8.63v15.48h-8.28v-12.82c0-2.57-1.26-3.97-3.23-3.97       c-1.96,0-3.4,1.4-3.4,3.97v12.82h-8.24v-12.82c0-2.57-1.31-3.97-3.27-3.97c-1.96,0-3.36,1.4-3.36,3.97v12.82H277V294.33z"/>
					<path class="st1" d="M317.11,311.15v-0.09c0-4.93,3.71-7.41,9.24-7.41c2.18,0,4.32,0.39,5.67,0.92v-0.39       c0-2.48-1.53-3.88-4.71-3.88c-2.48,0-4.4,0.52-6.54,1.31l-1.7-5.8c2.66-1.09,5.49-1.83,9.55-1.83c4.23,0,7.11,1,8.98,2.88       c1.79,1.74,2.53,4.19,2.53,7.5v13.56h-8.15v-2.48c-1.66,1.79-3.88,3.01-6.98,3.01C320.51,318.43,317.11,315.82,317.11,311.15z        M332.11,309.37v-1.09c-0.87-0.35-2.05-0.61-3.27-0.61c-2.4,0-3.79,1.13-3.79,2.92v0.09c0,1.61,1.22,2.57,2.92,2.57       C330.41,313.25,332.11,311.72,332.11,309.37z"/>
					<path class="st1" d="M343.27,294.33h8.28v3.31c1.53-1.96,3.71-3.84,7.06-3.84c5.01,0,8.02,3.31,8.02,8.68v15.43h-8.24v-12.77       c0-2.62-1.35-4.01-3.36-4.01c-2.01,0-3.49,1.4-3.49,4.01v12.77h-8.28V294.33z"/>
				</g>
			</g>
		</g>
	</g>
	<g>
		<path class="st1" d="M445.42,365.79c-1.96,0-3.55,1.6-3.55,3.58v0.02c0,1.96,1.6,3.55,3.55,3.55c1.96,0,3.56-1.6,3.56-3.57v-0.02    C448.98,367.39,447.38,365.79,445.42,365.79z M445.42,372.44c-1.7,0-3.02-1.34-3.02-3.05v-0.02c0-1.69,1.35-3.07,3.02-3.07    c1.7,0,3.03,1.34,3.03,3.05v0.02C448.45,371.06,447.09,372.44,445.42,372.44z"/>
		<path class="st1" d="M443.96,367.53h1.7c0.87,0,1.48,0.37,1.48,1.2c0,0.56-0.29,0.94-0.73,1.12l0.85,1.23h-1.16l-0.71-1.06h-0.43    v1.06h-1V367.53z M445.6,369.23c0.35,0,0.54-0.17,0.54-0.42c0-0.27-0.19-0.42-0.54-0.42h-0.64v0.85H445.6z"/>
	</g>
</g>
</svg>